{
	"asset":{
		"generator":"Khronos glTF Blender I/O v5.1.19",
		"version":"2.0"
	},
	"scene":0,
	"scenes":[
		{
			"name":"Scene",
			"nodes":[
				36
			]
		}
	],
	"nodes":[
		{
			"mesh":0,
			"name":"Object_10",
			"translation":[
				-1.7485506534576416,
				12.23244571685791,
				1.7865357398986816
			]
		},
		{
			"mesh":1,
			"name":"Object_11"
		},
		{
			"mesh":2,
			"name":"Object_12"
		},
		{
			"mesh":3,
			"name":"Object_13"
		},
		{
			"mesh":4,
			"name":"Object_14"
		},
		{
			"mesh":5,
			"name":"Object_15",
			"translation":[
				-1.731071949005127,
				-6.808953285217285,
				1.7950010299682617
			]
		},
		{
			"mesh":6,
			"name":"Object_16",
			"translation":[
				-1.7508941888809204,
				-9.530457496643066,
				1.788519024848938
			]
		},
		{
			"mesh":7,
			"name":"Object_17"
		},
		{
			"mesh":8,
			"name":"Object_4",
			"translation":[
				-1.732075572013855,
				-4.51991605758667,
				1.8016411066055298
			]
		},
		{
			"mesh":9,
			"name":"Object_5",
			"translation":[
				-1.7294130325317383,
				-1.3413524627685547,
				1.801360845565796
			]
		},
		{
			"mesh":10,
			"name":"Object_6",
			"translation":[
				-1.7294141054153442,
				-7.657829284667969,
				1.8013578653335571
			]
		},
		{
			"mesh":11,
			"name":"Object_7",
			"translation":[
				-1.7294126749038696,
				-9.730290412902832,
				1.801360011100769
			]
		},
		{
			"mesh":12,
			"name":"Object_8",
			"translation":[
				-1.7294132709503174,
				-9.088897705078125,
				1.80135977268219
			]
		},
		{
			"mesh":13,
			"name":"Object_9"
		},
		{
			"children":[
				0,
				1,
				2,
				3,
				4,
				5,
				6,
				7,
				8,
				9,
				10,
				11,
				12,
				13
			],
			"name":"Cylinder.001_4",
			"scale":[
				0.48554879426956177,
				0.48554879426956177,
				0.48554879426956177
			],
			"translation":[
				0.8504437208175659,
				-1.4621262550354004,
				-0.9773344993591309
			]
		},
		{
			"mesh":14,
			"name":"Object_19",
			"translation":[
				-0.8537626266479492,
				-0.08466076850891113,
				0.8537631034851074
			]
		},
		{
			"mesh":15,
			"name":"Object_20",
			"translation":[
				-0.8651266098022461,
				-1.428017020225525,
				0.8602132797241211
			]
		},
		{
			"mesh":16,
			"name":"Object_21",
			"translation":[
				-0.8537607192993164,
				-0.15422558784484863,
				0.8537611961364746
			]
		},
		{
			"children":[
				15,
				16,
				17
			],
			"name":"Cylinder.002_5",
			"scale":[
				0.192848339676857,
				0.192848339676857,
				0.192848339676857
			],
			"translation":[
				1.0035229921340942,
				-6.6081953048706055,
				-1.1524103879928589
			]
		},
		{
			"mesh":17,
			"name":"Object_23",
			"translation":[
				-1.0814323425292969,
				0.02521336078643799,
				1.0814322233200073
			]
		},
		{
			"mesh":18,
			"name":"Object_24",
			"translation":[
				-1.093898057937622,
				-0.9262223243713379,
				1.0916184186935425
			]
		},
		{
			"children":[
				19,
				20
			],
			"name":"Cylinder.003_6",
			"rotation":[
				0,
				0.9238795638084412,
				0,
				0.3826833963394165
			],
			"scale":[
				0.23572568595409393,
				0.2357255518436432,
				0.23572568595409393
			],
			"translation":[
				-0.34997057914733887,
				-6.542717933654785,
				-0.12705174088478088
			]
		},
		{
			"mesh":19,
			"name":"Object_26",
			"translation":[
				-0.853763222694397,
				-0.08466100692749023,
				0.8537635207176208
			]
		},
		{
			"mesh":20,
			"name":"Object_27",
			"translation":[
				-0.8651269674301147,
				-1.428017258644104,
				0.8602132201194763
			]
		},
		{
			"mesh":21,
			"name":"Object_28",
			"translation":[
				-0.8537613153457642,
				-0.15422582626342773,
				0.853761613368988
			]
		},
		{
			"children":[
				22,
				23,
				24
			],
			"name":"Cylinder.005_7",
			"rotation":[
				0,
				-0.7071068286895752,
				0,
				0.7071067094802856
			],
			"scale":[
				0.19284836947917938,
				0.192848339676857,
				0.19284836947917938
			],
			"translation":[
				1.0145213603973389,
				-6.6081953048706055,
				0.9360392689704895
			]
		},
		{
			"mesh":22,
			"name":"Object_30",
			"translation":[
				-0.8537622690200806,
				-0.08466076850891113,
				0.8537635207176208
			]
		},
		{
			"mesh":23,
			"name":"Object_31",
			"translation":[
				-0.8651267290115356,
				-1.428017020225525,
				0.8602132201194763
			]
		},
		{
			"mesh":24,
			"name":"Object_32",
			"translation":[
				-0.853760838508606,
				-0.15422558784484863,
				0.853761613368988
			]
		},
		{
			"children":[
				26,
				27,
				28
			],
			"name":"Cylinder.007_8",
			"rotation":[
				0,
				-1,
				0,
				1.6292069915380125e-07
			],
			"scale":[
				0.192848339676857,
				0.192848339676857,
				0.192848339676857
			],
			"translation":[
				-0.9820643663406372,
				-6.6081953048706055,
				0.9470375776290894
			]
		},
		{
			"mesh":25,
			"name":"Object_34",
			"translation":[
				-0.8537622690200806,
				-0.08466088771820068,
				0.853763222694397
			]
		},
		{
			"mesh":26,
			"name":"Object_35",
			"translation":[
				-0.8651257753372192,
				-1.4280171394348145,
				0.8602129220962524
			]
		},
		{
			"mesh":27,
			"name":"Object_36",
			"translation":[
				-0.853760838508606,
				-0.15422570705413818,
				0.8537613153457642
			]
		},
		{
			"children":[
				30,
				31,
				32
			],
			"name":"Cylinder.009_9",
			"rotation":[
				0,
				0.70710688829422,
				0,
				0.7071066498756409
			],
			"scale":[
				0.1928483247756958,
				0.192848339676857,
				0.1928483247756958
			],
			"translation":[
				-0.9930629730224609,
				-6.6081953048706055,
				-1.1414122581481934
			]
		},
		{
			"children":[
				14,
				18,
				21,
				25,
				29,
				33
			],
			"name":"GLTF_SceneRootNode",
			"rotation":[
				0.70710688829422,
				0,
				0,
				0.7071066498756409
			]
		},
		{
			"children":[
				34
			],
			"name":"root"
		},
		{
			"children":[
				35
			],
			"name":"Sketchfab_model",
			"rotation":[
				-0.70710688829422,
				0,
				0,
				0.7071066498756409
			],
			"translation":[
				0,
				6.873928546905518,
				0
			]
		}
	],
	"materials":[
		{
			"doubleSided":true,
			"name":"Material.003",
			"pbrMetallicRoughness":{
				"metallicFactor":0,
				"roughnessFactor":0.5
			}
		},
		{
			"doubleSided":true,
			"name":"5logo",
			"pbrMetallicRoughness":{
				"baseColorTexture":{
					"index":0
				},
				"metallicFactor":0,
				"roughnessFactor":0.5
			}
		},
		{
			"doubleSided":true,
			"name":"material_9",
			"pbrMetallicRoughness":{
				"baseColorTexture":{
					"index":1
				},
				"metallicFactor":0,
				"roughnessFactor":0.5
			}
		},
		{
			"doubleSided":true,
			"name":"logo",
			"pbrMetallicRoughness":{
				"baseColorTexture":{
					"index":2
				},
				"metallicFactor":0,
				"roughnessFactor":0.5
			}
		},
		{
			"doubleSided":true,
			"name":"flag",
			"pbrMetallicRoughness":{
				"baseColorTexture":{
					"index":3
				},
				"metallicFactor":0,
				"roughnessFactor":0.5
			}
		},
		{
			"doubleSided":true,
			"name":"Material.008",
			"pbrMetallicRoughness":{
				"baseColorFactor":[
					0.800000011920929,
					0.800000011920929,
					0.800000011920929,
					1
				],
				"metallicFactor":0,
				"roughnessFactor":0.5
			}
		},
		{
			"doubleSided":true,
			"name":"Material.006",
			"pbrMetallicRoughness":{
				"baseColorFactor":[
					0.661907970905304,
					0.661907970905304,
					0.661907970905304,
					1
				],
				"metallicFactor":0,
				"roughnessFactor":0.5
			}
		},
		{
			"doubleSided":true,
			"name":"material_0",
			"pbrMetallicRoughness":{
				"metallicFactor":0,
				"roughnessFactor":0.6000000238418579
			}
		},
		{
			"doubleSided":true,
			"name":"Base_material",
			"pbrMetallicRoughness":{
				"baseColorFactor":[
					0.9152969717979431,
					0.9679179787635803,
					1,
					1
				],
				"metallicFactor":0,
				"roughnessFactor":0.5
			}
		},
		{
			"doubleSided":true,
			"name":"Line_and_flag",
			"pbrMetallicRoughness":{
				"baseColorTexture":{
					"index":4
				},
				"metallicFactor":0,
				"roughnessFactor":0.5
			}
		},
		{
			"doubleSided":true,
			"name":"booster_color",
			"pbrMetallicRoughness":{
				"baseColorFactor":[
					1,
					0.8931249976158142,
					0.9208419919013977,
					1
				],
				"roughnessFactor":0.7266190052032471
			}
		},
		{
			"doubleSided":true,
			"name":"Material.001",
			"pbrMetallicRoughness":{
				"baseColorFactor":[
					0.800000011920929,
					0.800000011920929,
					0.800000011920929,
					1
				],
				"metallicFactor":0,
				"roughnessFactor":0.5
			}
		},
		{
			"doubleSided":true,
			"name":"Grey",
			"pbrMetallicRoughness":{
				"baseColorFactor":[
					0.5435280203819275,
					0.5435280203819275,
					0.5435280203819275,
					1
				],
				"metallicFactor":0,
				"roughnessFactor":0.5
			}
		},
		{
			"doubleSided":true,
			"emissiveFactor":[
				0.0778006985783577,
				0.0778006985783577,
				0.0778006985783577
			],
			"name":"material",
			"pbrMetallicRoughness":{
				"baseColorTexture":{
					"index":5
				},
				"metallicFactor":0,
				"roughnessFactor":0.5
			}
		},
		{
			"doubleSided":true,
			"name":"Material.002",
			"pbrMetallicRoughness":{
				"baseColorFactor":[
					0.32041698694229126,
					0.34845200181007385,
					0.35893601179122925,
					1
				],
				"roughnessFactor":0.5
			}
		},
		{
			"doubleSided":true,
			"name":"Red.001",
			"pbrMetallicRoughness":{
				"baseColorFactor":[
					0.46126699447631836,
					0,
					0.003292769892141223,
					1
				],
				"metallicFactor":0,
				"roughnessFactor":0.5
			}
		},
		{
			"doubleSided":true,
			"name":"Orange",
			"pbrMetallicRoughness":{
				"baseColorFactor":[
					0.800000011920929,
					0.2986089885234833,
					0,
					1
				],
				"metallicFactor":0
			}
		}
	],
	"meshes":[
		{
			"name":"Object_6",
			"primitives":[
				{
					"attributes":{
						"POSITION":0,
						"NORMAL":1,
						"TEXCOORD_0":2
					},
					"indices":3,
					"material":0
				}
			]
		},
		{
			"name":"Object_7",
			"primitives":[
				{
					"attributes":{
						"POSITION":4,
						"NORMAL":5,
						"TEXCOORD_0":6
					},
					"indices":7,
					"material":1
				}
			]
		},
		{
			"name":"Object_8",
			"primitives":[
				{
					"attributes":{
						"POSITION":8,
						"NORMAL":9,
						"TEXCOORD_0":10
					},
					"indices":11,
					"material":2
				}
			]
		},
		{
			"name":"Object_9",
			"primitives":[
				{
					"attributes":{
						"POSITION":12,
						"NORMAL":13,
						"TEXCOORD_0":14
					},
					"indices":15,
					"material":3
				}
			]
		},
		{
			"name":"Object_10",
			"primitives":[
				{
					"attributes":{
						"POSITION":16,
						"NORMAL":17,
						"TEXCOORD_0":18
					},
					"indices":19,
					"material":4
				}
			]
		},
		{
			"name":"Object_11",
			"primitives":[
				{
					"attributes":{
						"POSITION":20,
						"NORMAL":21,
						"TEXCOORD_0":22
					},
					"indices":23,
					"material":5
				}
			]
		},
		{
			"name":"Object_12",
			"primitives":[
				{
					"attributes":{
						"POSITION":24,
						"NORMAL":25,
						"TEXCOORD_0":26
					},
					"indices":27,
					"material":6
				}
			]
		},
		{
			"name":"Object_13",
			"primitives":[
				{
					"attributes":{
						"POSITION":28,
						"NORMAL":29,
						"TEXCOORD_0":30
					},
					"indices":31,
					"material":7
				}
			]
		},
		{
			"name":"Object_0",
			"primitives":[
				{
					"attributes":{
						"POSITION":32,
						"NORMAL":33,
						"TEXCOORD_0":34
					},
					"indices":35,
					"material":8
				}
			]
		},
		{
			"name":"Object_1",
			"primitives":[
				{
					"attributes":{
						"POSITION":36,
						"NORMAL":37,
						"TEXCOORD_0":38
					},
					"indices":39,
					"material":9
				}
			]
		},
		{
			"name":"Object_2",
			"primitives":[
				{
					"attributes":{
						"POSITION":40,
						"NORMAL":41,
						"TEXCOORD_0":42
					},
					"indices":43,
					"material":10
				}
			]
		},
		{
			"name":"Object_3",
			"primitives":[
				{
					"attributes":{
						"POSITION":44,
						"NORMAL":45,
						"TEXCOORD_0":46
					},
					"indices":47,
					"material":11
				}
			]
		},
		{
			"name":"Object_4",
			"primitives":[
				{
					"attributes":{
						"POSITION":48,
						"NORMAL":49,
						"TEXCOORD_0":50
					},
					"indices":51,
					"material":12
				}
			]
		},
		{
			"name":"Object_5",
			"primitives":[
				{
					"attributes":{
						"POSITION":52,
						"NORMAL":53,
						"TEXCOORD_0":54
					},
					"indices":55,
					"material":13
				}
			]
		},
		{
			"name":"Object_14",
			"primitives":[
				{
					"attributes":{
						"POSITION":56,
						"NORMAL":57,
						"TEXCOORD_0":58
					},
					"indices":59,
					"material":14
				}
			]
		},
		{
			"name":"Object_15",
			"primitives":[
				{
					"attributes":{
						"POSITION":60,
						"NORMAL":61,
						"TEXCOORD_0":62
					},
					"indices":63,
					"material":15
				}
			]
		},
		{
			"name":"Object_16",
			"primitives":[
				{
					"attributes":{
						"POSITION":64,
						"NORMAL":65,
						"TEXCOORD_0":66
					},
					"indices":67,
					"material":16
				}
			]
		},
		{
			"name":"Object_17",
			"primitives":[
				{
					"attributes":{
						"POSITION":68,
						"NORMAL":69,
						"TEXCOORD_0":70
					},
					"indices":71,
					"material":16
				}
			]
		},
		{
			"name":"Object_18",
			"primitives":[
				{
					"attributes":{
						"POSITION":72,
						"NORMAL":73,
						"TEXCOORD_0":74
					},
					"indices":75,
					"material":14
				}
			]
		},
		{
			"name":"Object_19",
			"primitives":[
				{
					"attributes":{
						"POSITION":76,
						"NORMAL":77,
						"TEXCOORD_0":78
					},
					"indices":59,
					"material":14
				}
			]
		},
		{
			"name":"Object_20",
			"primitives":[
				{
					"attributes":{
						"POSITION":79,
						"NORMAL":80,
						"TEXCOORD_0":81
					},
					"indices":63,
					"material":15
				}
			]
		},
		{
			"name":"Object_21",
			"primitives":[
				{
					"attributes":{
						"POSITION":82,
						"NORMAL":83,
						"TEXCOORD_0":84
					},
					"indices":67,
					"material":16
				}
			]
		},
		{
			"name":"Object_22",
			"primitives":[
				{
					"attributes":{
						"POSITION":85,
						"NORMAL":86,
						"TEXCOORD_0":87
					},
					"indices":59,
					"material":14
				}
			]
		},
		{
			"name":"Object_23",
			"primitives":[
				{
					"attributes":{
						"POSITION":88,
						"NORMAL":89,
						"TEXCOORD_0":90
					},
					"indices":63,
					"material":15
				}
			]
		},
		{
			"name":"Object_24",
			"primitives":[
				{
					"attributes":{
						"POSITION":91,
						"NORMAL":92,
						"TEXCOORD_0":93
					},
					"indices":67,
					"material":16
				}
			]
		},
		{
			"name":"Object_25",
			"primitives":[
				{
					"attributes":{
						"POSITION":94,
						"NORMAL":95,
						"TEXCOORD_0":96
					},
					"indices":59,
					"material":14
				}
			]
		},
		{
			"name":"Object_26",
			"primitives":[
				{
					"attributes":{
						"POSITION":97,
						"NORMAL":98,
						"TEXCOORD_0":99
					},
					"indices":63,
					"material":15
				}
			]
		},
		{
			"name":"Object_27",
			"primitives":[
				{
					"attributes":{
						"POSITION":100,
						"NORMAL":101,
						"TEXCOORD_0":102
					},
					"indices":67,
					"material":16
				}
			]
		}
	],
	"textures":[
		{
			"sampler":0,
			"source":0
		},
		{
			"sampler":0,
			"source":1
		},
		{
			"sampler":0,
			"source":2
		},
		{
			"sampler":0,
			"source":3
		},
		{
			"sampler":0,
			"source":0
		},
		{
			"sampler":0,
			"source":4
		}
	],
	"images":[
		{
			"mimeType":"image/png",
			"name":"Line_and_flag_baseColor",
			"uri":"Line_and_flag_baseColor.png"
		},
		{
			"mimeType":"image/png",
			"name":"material_9_baseColor",
			"uri":"material_9_baseColor.png"
		},
		{
			"mimeType":"image/jpeg",
			"name":"logo_baseColor",
			"uri":"logo_baseColor.jpg"
		},
		{
			"mimeType":"image/png",
			"name":"flag_baseColor",
			"uri":"flag_baseColor.png"
		},
		{
			"mimeType":"image/png",
			"name":"material_baseColor",
			"uri":"material_baseColor.png"
		}
	],
	"accessors":[
		{
			"bufferView":0,
			"componentType":5126,
			"count":15272,
			"max":[
				1.5467334985733032,
				9.373141288757324,
				1.5524262189865112
			],
			"min":[
				-1.552652359008789,
				-22.764564514160156,
				-1.5469599962234497
			],
			"type":"VEC3"
		},
		{
			"bufferView":1,
			"componentType":5126,
			"count":15272,
			"type":"VEC3"
		},
		{
			"bufferView":2,
			"componentType":5126,
			"count":15272,
			"type":"VEC2"
		},
		{
			"bufferView":3,
			"componentType":5123,
			"count":42966,
			"type":"SCALAR"
		},
		{
			"bufferView":4,
			"componentType":5126,
			"count":50,
			"max":[
				-0.22580111026763916,
				6.500514507293701,
				2.5329065322875977
			],
			"min":[
				-0.5149426460266113,
				4.408927917480469,
				0.9629833698272705
			],
			"type":"VEC3"
		},
		{
			"bufferView":5,
			"componentType":5126,
			"count":50,
			"type":"VEC3"
		},
		{
			"bufferView":6,
			"componentType":5126,
			"count":50,
			"type":"VEC2"
		},
		{
			"bufferView":7,
			"componentType":5123,
			"count":108,
			"type":"SCALAR"
		},
		{
			"bufferView":8,
			"componentType":5126,
			"count":492,
			"max":[
				-0.2298870086669922,
				11.394087791442871,
				2.278378963470459
			],
			"min":[
				-3.273134231567383,
				6.5059356689453125,
				1.3954437971115112
			],
			"type":"VEC3"
		},
		{
			"bufferView":9,
			"componentType":5126,
			"count":492,
			"type":"VEC3"
		},
		{
			"bufferView":10,
			"componentType":5126,
			"count":492,
			"type":"VEC2"
		},
		{
			"bufferView":11,
			"componentType":5123,
			"count":810,
			"type":"SCALAR"
		},
		{
			"bufferView":12,
			"componentType":5126,
			"count":124,
			"max":[
				-0.26641035079956055,
				16.327360153198242,
				3.2736496925354004
			],
			"min":[
				-3.2366108894348145,
				11.752525329589844,
				0.3048882484436035
			],
			"type":"VEC3"
		},
		{
			"bufferView":13,
			"componentType":5126,
			"count":124,
			"type":"VEC3"
		},
		{
			"bufferView":14,
			"componentType":5126,
			"count":124,
			"type":"VEC2"
		},
		{
			"bufferView":15,
			"componentType":5123,
			"count":336,
			"type":"SCALAR"
		},
		{
			"bufferView":16,
			"componentType":5126,
			"count":180,
			"max":[
				-0.26712989807128906,
				16.751317977905273,
				2.767989158630371
			],
			"min":[
				-3.235891342163086,
				14.861934661865234,
				0.8105486631393433
			],
			"type":"VEC3"
		},
		{
			"bufferView":17,
			"componentType":5126,
			"count":180,
			"type":"VEC3"
		},
		{
			"bufferView":18,
			"componentType":5126,
			"count":180,
			"type":"VEC2"
		},
		{
			"bufferView":19,
			"componentType":5123,
			"count":738,
			"type":"SCALAR"
		},
		{
			"bufferView":20,
			"componentType":5126,
			"count":1093,
			"max":[
				1.480090618133545,
				9.228946685791016,
				1.4947967529296875
			],
			"min":[
				-1.520966649055481,
				-1.8877320289611816,
				-1.5062609910964966
			],
			"type":"VEC3"
		},
		{
			"bufferView":21,
			"componentType":5126,
			"count":1093,
			"type":"VEC3"
		},
		{
			"bufferView":22,
			"componentType":5126,
			"count":1093,
			"type":"VEC2"
		},
		{
			"bufferView":23,
			"componentType":5123,
			"count":2142,
			"type":"SCALAR"
		},
		{
			"bufferView":24,
			"componentType":5126,
			"count":200,
			"max":[
				1.4811584949493408,
				0.7056970596313477,
				1.4825232028961182
			],
			"min":[
				-1.482388973236084,
				-0.7057352066040039,
				-1.4810235500335693
			],
			"type":"VEC3"
		},
		{
			"bufferView":25,
			"componentType":5126,
			"count":200,
			"type":"VEC3"
		},
		{
			"bufferView":26,
			"componentType":5126,
			"count":200,
			"type":"VEC2"
		},
		{
			"bufferView":27,
			"componentType":5123,
			"count":576,
			"type":"SCALAR"
		},
		{
			"bufferView":28,
			"componentType":5126,
			"count":912,
			"max":[
				-0.23557066917419434,
				13.638544082641602,
				3.305208921432495
			],
			"min":[
				-3.2674505710601807,
				11.281957626342773,
				0.2733290195465088
			],
			"type":"VEC3"
		},
		{
			"bufferView":29,
			"componentType":5126,
			"count":912,
			"type":"VEC3"
		},
		{
			"bufferView":30,
			"componentType":5126,
			"count":912,
			"type":"VEC2"
		},
		{
			"bufferView":31,
			"componentType":5123,
			"count":2592,
			"type":"SCALAR"
		},
		{
			"bufferView":32,
			"componentType":5126,
			"count":26223,
			"max":[
				2.7847986221313477,
				18.519027709960938,
				2.876452922821045
			],
			"min":[
				-2.7794735431671143,
				-6.130639553070068,
				-2.8770158290863037
			],
			"type":"VEC3"
		},
		{
			"bufferView":33,
			"componentType":5126,
			"count":26223,
			"type":"VEC3"
		},
		{
			"bufferView":34,
			"componentType":5126,
			"count":26223,
			"type":"VEC2"
		},
		{
			"bufferView":35,
			"componentType":5123,
			"count":72684,
			"type":"SCALAR"
		},
		{
			"bufferView":36,
			"componentType":5126,
			"count":96,
			"max":[
				2.58306884765625,
				3.3151683807373047,
				2.677665948867798
			],
			"min":[
				-2.58306884765625,
				-6.032340049743652,
				-2.6776680946350098
			],
			"type":"VEC3"
		},
		{
			"bufferView":37,
			"componentType":5126,
			"count":96,
			"type":"VEC3"
		},
		{
			"bufferView":38,
			"componentType":5126,
			"count":96,
			"type":"VEC2"
		},
		{
			"bufferView":39,
			"componentType":5123,
			"count":216,
			"type":"SCALAR"
		},
		{
			"bufferView":40,
			"componentType":5126,
			"count":520,
			"max":[
				2.7381479740142822,
				0.2866191864013672,
				2.832746982574463
			],
			"min":[
				-2.7381458282470703,
				-0.28666019439697266,
				-2.8327436447143555
			],
			"type":"VEC3"
		},
		{
			"bufferView":41,
			"componentType":5126,
			"count":520,
			"type":"VEC3"
		},
		{
			"bufferView":42,
			"componentType":5126,
			"count":520,
			"type":"VEC2"
		},
		{
			"bufferView":43,
			"componentType":5123,
			"count":1536,
			"type":"SCALAR"
		},
		{
			"bufferView":44,
			"componentType":5126,
			"count":108,
			"max":[
				3.885807991027832,
				1.5837011337280273,
				3.9804062843322754
			],
			"min":[
				-3.8858084678649902,
				-0.7138633728027344,
				-3.9804062843322754
			],
			"type":"VEC3"
		},
		{
			"bufferView":45,
			"componentType":5126,
			"count":108,
			"type":"VEC3"
		},
		{
			"bufferView":46,
			"componentType":5126,
			"count":108,
			"type":"VEC2"
		},
		{
			"bufferView":47,
			"componentType":5123,
			"count":144,
			"type":"SCALAR"
		},
		{
			"bufferView":48,
			"componentType":5126,
			"count":44,
			"max":[
				3.8858084678649902,
				0.9423084259033203,
				3.9804067611694336
			],
			"min":[
				-3.885807991027832,
				-0.934962272644043,
				-3.9804062843322754
			],
			"type":"VEC3"
		},
		{
			"bufferView":49,
			"componentType":5126,
			"count":44,
			"type":"VEC3"
		},
		{
			"bufferView":50,
			"componentType":5126,
			"count":44,
			"type":"VEC2"
		},
		{
			"bufferView":51,
			"componentType":5123,
			"count":60,
			"type":"SCALAR"
		},
		{
			"bufferView":52,
			"componentType":5126,
			"count":32,
			"max":[
				0.8314695954322815,
				-3.7160091400146484,
				4.456840515136719
			],
			"min":[
				-4.290295600891113,
				-4.824031829833984,
				-0.8541210889816284
			],
			"type":"VEC3"
		},
		{
			"bufferView":53,
			"componentType":5126,
			"count":32,
			"type":"VEC3"
		},
		{
			"bufferView":54,
			"componentType":5126,
			"count":32,
			"type":"VEC2"
		},
		{
			"bufferView":55,
			"componentType":5123,
			"count":72,
			"type":"SCALAR"
		},
		{
			"bufferView":56,
			"componentType":5126,
			"count":2030,
			"max":[
				1.92762291431427,
				0.621759295463562,
				1.9276208877563477
			],
			"min":[
				-1.9276206493377686,
				-1.3821313381195068,
				-1.9276225566864014
			],
			"type":"VEC3"
		},
		{
			"bufferView":57,
			"componentType":5126,
			"count":2030,
			"type":"VEC3"
		},
		{
			"bufferView":58,
			"componentType":5126,
			"count":2030,
			"type":"VEC2"
		},
		{
			"bufferView":59,
			"componentType":5123,
			"count":3156,
			"type":"SCALAR"
		},
		{
			"bufferView":60,
			"componentType":5126,
			"count":728,
			"max":[
				1.9477635622024536,
				0.10826146602630615,
				1.9299471378326416
			],
			"min":[
				-1.925033688545227,
				-0.038775086402893066,
				-1.942850112915039
			],
			"type":"VEC3"
		},
		{
			"bufferView":61,
			"componentType":5126,
			"count":728,
			"type":"VEC3"
		},
		{
			"bufferView":62,
			"componentType":5126,
			"count":728,
			"type":"VEC2"
		},
		{
			"bufferView":63,
			"componentType":5123,
			"count":1152,
			"type":"SCALAR"
		},
		{
			"bufferView":64,
			"componentType":5126,
			"count":1632,
			"max":[
				1.992109775543213,
				0.6402729749679565,
				1.9921104907989502
			],
			"min":[
				-1.9921109676361084,
				-0.21169452369213104,
				-1.992109775543213
			],
			"type":"VEC3"
		},
		{
			"bufferView":65,
			"componentType":5126,
			"count":1632,
			"type":"VEC3"
		},
		{
			"bufferView":66,
			"componentType":5126,
			"count":1632,
			"type":"VEC2"
		},
		{
			"bufferView":67,
			"componentType":5123,
			"count":2580,
			"type":"SCALAR"
		},
		{
			"bufferView":68,
			"componentType":5126,
			"count":2896,
			"max":[
				2.2197811603546143,
				0.5118850469589233,
				2.2197790145874023
			],
			"min":[
				-2.2197792530059814,
				-0.391133576631546,
				-2.219780921936035
			],
			"type":"VEC3"
		},
		{
			"bufferView":69,
			"componentType":5126,
			"count":2896,
			"type":"VEC3"
		},
		{
			"bufferView":70,
			"componentType":5126,
			"count":2896,
			"type":"VEC2"
		},
		{
			"bufferView":71,
			"componentType":5123,
			"count":4584,
			"type":"SCALAR"
		},
		{
			"bufferView":72,
			"componentType":5126,
			"count":1116,
			"max":[
				2.176535129547119,
				1.4122695922851562,
				2.153881072998047
			],
			"min":[
				-2.151601791381836,
				-0.5405699610710144,
				-2.17425537109375
			],
			"type":"VEC3"
		},
		{
			"bufferView":73,
			"componentType":5126,
			"count":1116,
			"type":"VEC3"
		},
		{
			"bufferView":74,
			"componentType":5126,
			"count":1116,
			"type":"VEC2"
		},
		{
			"bufferView":75,
			"componentType":5123,
			"count":1728,
			"type":"SCALAR"
		},
		{
			"bufferView":76,
			"componentType":5126,
			"count":2030,
			"max":[
				1.92762291431427,
				0.621759295463562,
				1.9276208877563477
			],
			"min":[
				-1.9276206493377686,
				-1.3821313381195068,
				-1.9276225566864014
			],
			"type":"VEC3"
		},
		{
			"bufferView":77,
			"componentType":5126,
			"count":2030,
			"type":"VEC3"
		},
		{
			"bufferView":78,
			"componentType":5126,
			"count":2030,
			"type":"VEC2"
		},
		{
			"bufferView":79,
			"componentType":5126,
			"count":728,
			"max":[
				1.9477635622024536,
				0.10826146602630615,
				1.9299471378326416
			],
			"min":[
				-1.925033688545227,
				-0.038775086402893066,
				-1.942850112915039
			],
			"type":"VEC3"
		},
		{
			"bufferView":80,
			"componentType":5126,
			"count":728,
			"type":"VEC3"
		},
		{
			"bufferView":81,
			"componentType":5126,
			"count":728,
			"type":"VEC2"
		},
		{
			"bufferView":82,
			"componentType":5126,
			"count":1632,
			"max":[
				1.992109775543213,
				0.6402729749679565,
				1.9921104907989502
			],
			"min":[
				-1.9921109676361084,
				-0.21169452369213104,
				-1.992109775543213
			],
			"type":"VEC3"
		},
		{
			"bufferView":83,
			"componentType":5126,
			"count":1632,
			"type":"VEC3"
		},
		{
			"bufferView":84,
			"componentType":5126,
			"count":1632,
			"type":"VEC2"
		},
		{
			"bufferView":85,
			"componentType":5126,
			"count":2030,
			"max":[
				1.92762291431427,
				0.621759295463562,
				1.9276208877563477
			],
			"min":[
				-1.9276206493377686,
				-1.3821313381195068,
				-1.9276225566864014
			],
			"type":"VEC3"
		},
		{
			"bufferView":86,
			"componentType":5126,
			"count":2030,
			"type":"VEC3"
		},
		{
			"bufferView":87,
			"componentType":5126,
			"count":2030,
			"type":"VEC2"
		},
		{
			"bufferView":88,
			"componentType":5126,
			"count":728,
			"max":[
				1.9477635622024536,
				0.10826146602630615,
				1.9299471378326416
			],
			"min":[
				-1.925033688545227,
				-0.038775086402893066,
				-1.942850112915039
			],
			"type":"VEC3"
		},
		{
			"bufferView":89,
			"componentType":5126,
			"count":728,
			"type":"VEC3"
		},
		{
			"bufferView":90,
			"componentType":5126,
			"count":728,
			"type":"VEC2"
		},
		{
			"bufferView":91,
			"componentType":5126,
			"count":1632,
			"max":[
				1.992109775543213,
				0.6402729749679565,
				1.9921104907989502
			],
			"min":[
				-1.9921109676361084,
				-0.21169452369213104,
				-1.992109775543213
			],
			"type":"VEC3"
		},
		{
			"bufferView":92,
			"componentType":5126,
			"count":1632,
			"type":"VEC3"
		},
		{
			"bufferView":93,
			"componentType":5126,
			"count":1632,
			"type":"VEC2"
		},
		{
			"bufferView":94,
			"componentType":5126,
			"count":2030,
			"max":[
				1.92762291431427,
				0.621759295463562,
				1.9276208877563477
			],
			"min":[
				-1.9276206493377686,
				-1.3821313381195068,
				-1.9276225566864014
			],
			"type":"VEC3"
		},
		{
			"bufferView":95,
			"componentType":5126,
			"count":2030,
			"type":"VEC3"
		},
		{
			"bufferView":96,
			"componentType":5126,
			"count":2030,
			"type":"VEC2"
		},
		{
			"bufferView":97,
			"componentType":5126,
			"count":728,
			"max":[
				1.9477635622024536,
				0.10826146602630615,
				1.9299471378326416
			],
			"min":[
				-1.925033688545227,
				-0.038775086402893066,
				-1.942850112915039
			],
			"type":"VEC3"
		},
		{
			"bufferView":98,
			"componentType":5126,
			"count":728,
			"type":"VEC3"
		},
		{
			"bufferView":99,
			"componentType":5126,
			"count":728,
			"type":"VEC2"
		},
		{
			"bufferView":100,
			"componentType":5126,
			"count":1632,
			"max":[
				1.992109775543213,
				0.6402729749679565,
				1.9921104907989502
			],
			"min":[
				-1.9921109676361084,
				-0.21169452369213104,
				-1.992109775543213
			],
			"type":"VEC3"
		},
		{
			"bufferView":101,
			"componentType":5126,
			"count":1632,
			"type":"VEC3"
		},
		{
			"bufferView":102,
			"componentType":5126,
			"count":1632,
			"type":"VEC2"
		}
	],
	"bufferViews":[
		{
			"buffer":0,
			"byteLength":183264,
			"byteOffset":0,
			"target":34962
		},
		{
			"buffer":0,
			"byteLength":183264,
			"byteOffset":183264,
			"target":34962
		},
		{
			"buffer":0,
			"byteLength":122176,
			"byteOffset":366528,
			"target":34962
		},
		{
			"buffer":0,
			"byteLength":85932,
			"byteOffset":488704,
			"target":34963
		},
		{
			"buffer":0,
			"byteLength":600,
			"byteOffset":574636,
			"target":34962
		},
		{
			"buffer":0,
			"byteLength":600,
			"byteOffset":575236,
			"target":34962
		},
		{
			"buffer":0,
			"byteLength":400,
			"byteOffset":575836,
			"target":34962
		},
		{
			"buffer":0,
			"byteLength":216,
			"byteOffset":576236,
			"target":34963
		},
		{
			"buffer":0,
			"byteLength":5904,
			"byteOffset":576452,
			"target":34962
		},
		{
			"buffer":0,
			"byteLength":5904,
			"byteOffset":582356,
			"target":34962
		},
		{
			"buffer":0,
			"byteLength":3936,
			"byteOffset":588260,
			"target":34962
		},
		{
			"buffer":0,
			"byteLength":1620,
			"byteOffset":592196,
			"target":34963
		},
		{
			"buffer":0,
			"byteLength":1488,
			"byteOffset":593816,
			"target":34962
		},
		{
			"buffer":0,
			"byteLength":1488,
			"byteOffset":595304,
			"target":34962
		},
		{
			"buffer":0,
			"byteLength":992,
			"byteOffset":596792,
			"target":34962
		},
		{
			"buffer":0,
			"byteLength":672,
			"byteOffset":597784,
			"target":34963
		},
		{
			"buffer":0,
			"byteLength":2160,
			"byteOffset":598456,
			"target":34962
		},
		{
			"buffer":0,
			"byteLength":2160,
			"byteOffset":600616,
			"target":34962
		},
		{
			"buffer":0,
			"byteLength":1440,
			"byteOffset":602776,
			"target":34962
		},
		{
			"buffer":0,
			"byteLength":1476,
			"byteOffset":604216,
			"target":34963
		},
		{
			"buffer":0,
			"byteLength":13116,
			"byteOffset":605692,
			"target":34962
		},
		{
			"buffer":0,
			"byteLength":13116,
			"byteOffset":618808,
			"target":34962
		},
		{
			"buffer":0,
			"byteLength":8744,
			"byteOffset":631924,
			"target":34962
		},
		{
			"buffer":0,
			"byteLength":4284,
			"byteOffset":640668,
			"target":34963
		},
		{
			"buffer":0,
			"byteLength":2400,
			"byteOffset":644952,
			"target":34962
		},
		{
			"buffer":0,
			"byteLength":2400,
			"byteOffset":647352,
			"target":34962
		},
		{
			"buffer":0,
			"byteLength":1600,
			"byteOffset":649752,
			"target":34962
		},
		{
			"buffer":0,
			"byteLength":1152,
			"byteOffset":651352,
			"target":34963
		},
		{
			"buffer":0,
			"byteLength":10944,
			"byteOffset":652504,
			"target":34962
		},
		{
			"buffer":0,
			"byteLength":10944,
			"byteOffset":663448,
			"target":34962
		},
		{
			"buffer":0,
			"byteLength":7296,
			"byteOffset":674392,
			"target":34962
		},
		{
			"buffer":0,
			"byteLength":5184,
			"byteOffset":681688,
			"target":34963
		},
		{
			"buffer":0,
			"byteLength":314676,
			"byteOffset":686872,
			"target":34962
		},
		{
			"buffer":0,
			"byteLength":314676,
			"byteOffset":1001548,
			"target":34962
		},
		{
			"buffer":0,
			"byteLength":209784,
			"byteOffset":1316224,
			"target":34962
		},
		{
			"buffer":0,
			"byteLength":145368,
			"byteOffset":1526008,
			"target":34963
		},
		{
			"buffer":0,
			"byteLength":1152,
			"byteOffset":1671376,
			"target":34962
		},
		{
			"buffer":0,
			"byteLength":1152,
			"byteOffset":1672528,
			"target":34962
		},
		{
			"buffer":0,
			"byteLength":768,
			"byteOffset":1673680,
			"target":34962
		},
		{
			"buffer":0,
			"byteLength":432,
			"byteOffset":1674448,
			"target":34963
		},
		{
			"buffer":0,
			"byteLength":6240,
			"byteOffset":1674880,
			"target":34962
		},
		{
			"buffer":0,
			"byteLength":6240,
			"byteOffset":1681120,
			"target":34962
		},
		{
			"buffer":0,
			"byteLength":4160,
			"byteOffset":1687360,
			"target":34962
		},
		{
			"buffer":0,
			"byteLength":3072,
			"byteOffset":1691520,
			"target":34963
		},
		{
			"buffer":0,
			"byteLength":1296,
			"byteOffset":1694592,
			"target":34962
		},
		{
			"buffer":0,
			"byteLength":1296,
			"byteOffset":1695888,
			"target":34962
		},
		{
			"buffer":0,
			"byteLength":864,
			"byteOffset":1697184,
			"target":34962
		},
		{
			"buffer":0,
			"byteLength":288,
			"byteOffset":1698048,
			"target":34963
		},
		{
			"buffer":0,
			"byteLength":528,
			"byteOffset":1698336,
			"target":34962
		},
		{
			"buffer":0,
			"byteLength":528,
			"byteOffset":1698864,
			"target":34962
		},
		{
			"buffer":0,
			"byteLength":352,
			"byteOffset":1699392,
			"target":34962
		},
		{
			"buffer":0,
			"byteLength":120,
			"byteOffset":1699744,
			"target":34963
		},
		{
			"buffer":0,
			"byteLength":384,
			"byteOffset":1699864,
			"target":34962
		},
		{
			"buffer":0,
			"byteLength":384,
			"byteOffset":1700248,
			"target":34962
		},
		{
			"buffer":0,
			"byteLength":256,
			"byteOffset":1700632,
			"target":34962
		},
		{
			"buffer":0,
			"byteLength":144,
			"byteOffset":1700888,
			"target":34963
		},
		{
			"buffer":0,
			"byteLength":24360,
			"byteOffset":1701032,
			"target":34962
		},
		{
			"buffer":0,
			"byteLength":24360,
			"byteOffset":1725392,
			"target":34962
		},
		{
			"buffer":0,
			"byteLength":16240,
			"byteOffset":1749752,
			"target":34962
		},
		{
			"buffer":0,
			"byteLength":6312,
			"byteOffset":1765992,
			"target":34963
		},
		{
			"buffer":0,
			"byteLength":8736,
			"byteOffset":1772304,
			"target":34962
		},
		{
			"buffer":0,
			"byteLength":8736,
			"byteOffset":1781040,
			"target":34962
		},
		{
			"buffer":0,
			"byteLength":5824,
			"byteOffset":1789776,
			"target":34962
		},
		{
			"buffer":0,
			"byteLength":2304,
			"byteOffset":1795600,
			"target":34963
		},
		{
			"buffer":0,
			"byteLength":19584,
			"byteOffset":1797904,
			"target":34962
		},
		{
			"buffer":0,
			"byteLength":19584,
			"byteOffset":1817488,
			"target":34962
		},
		{
			"buffer":0,
			"byteLength":13056,
			"byteOffset":1837072,
			"target":34962
		},
		{
			"buffer":0,
			"byteLength":5160,
			"byteOffset":1850128,
			"target":34963
		},
		{
			"buffer":0,
			"byteLength":34752,
			"byteOffset":1855288,
			"target":34962
		},
		{
			"buffer":0,
			"byteLength":34752,
			"byteOffset":1890040,
			"target":34962
		},
		{
			"buffer":0,
			"byteLength":23168,
			"byteOffset":1924792,
			"target":34962
		},
		{
			"buffer":0,
			"byteLength":9168,
			"byteOffset":1947960,
			"target":34963
		},
		{
			"buffer":0,
			"byteLength":13392,
			"byteOffset":1957128,
			"target":34962
		},
		{
			"buffer":0,
			"byteLength":13392,
			"byteOffset":1970520,
			"target":34962
		},
		{
			"buffer":0,
			"byteLength":8928,
			"byteOffset":1983912,
			"target":34962
		},
		{
			"buffer":0,
			"byteLength":3456,
			"byteOffset":1992840,
			"target":34963
		},
		{
			"buffer":0,
			"byteLength":24360,
			"byteOffset":1996296,
			"target":34962
		},
		{
			"buffer":0,
			"byteLength":24360,
			"byteOffset":2020656,
			"target":34962
		},
		{
			"buffer":0,
			"byteLength":16240,
			"byteOffset":2045016,
			"target":34962
		},
		{
			"buffer":0,
			"byteLength":8736,
			"byteOffset":2061256,
			"target":34962
		},
		{
			"buffer":0,
			"byteLength":8736,
			"byteOffset":2069992,
			"target":34962
		},
		{
			"buffer":0,
			"byteLength":5824,
			"byteOffset":2078728,
			"target":34962
		},
		{
			"buffer":0,
			"byteLength":19584,
			"byteOffset":2084552,
			"target":34962
		},
		{
			"buffer":0,
			"byteLength":19584,
			"byteOffset":2104136,
			"target":34962
		},
		{
			"buffer":0,
			"byteLength":13056,
			"byteOffset":2123720,
			"target":34962
		},
		{
			"buffer":0,
			"byteLength":24360,
			"byteOffset":2136776,
			"target":34962
		},
		{
			"buffer":0,
			"byteLength":24360,
			"byteOffset":2161136,
			"target":34962
		},
		{
			"buffer":0,
			"byteLength":16240,
			"byteOffset":2185496,
			"target":34962
		},
		{
			"buffer":0,
			"byteLength":8736,
			"byteOffset":2201736,
			"target":34962
		},
		{
			"buffer":0,
			"byteLength":8736,
			"byteOffset":2210472,
			"target":34962
		},
		{
			"buffer":0,
			"byteLength":5824,
			"byteOffset":2219208,
			"target":34962
		},
		{
			"buffer":0,
			"byteLength":19584,
			"byteOffset":2225032,
			"target":34962
		},
		{
			"buffer":0,
			"byteLength":19584,
			"byteOffset":2244616,
			"target":34962
		},
		{
			"buffer":0,
			"byteLength":13056,
			"byteOffset":2264200,
			"target":34962
		},
		{
			"buffer":0,
			"byteLength":24360,
			"byteOffset":2277256,
			"target":34962
		},
		{
			"buffer":0,
			"byteLength":24360,
			"byteOffset":2301616,
			"target":34962
		},
		{
			"buffer":0,
			"byteLength":16240,
			"byteOffset":2325976,
			"target":34962
		},
		{
			"buffer":0,
			"byteLength":8736,
			"byteOffset":2342216,
			"target":34962
		},
		{
			"buffer":0,
			"byteLength":8736,
			"byteOffset":2350952,
			"target":34962
		},
		{
			"buffer":0,
			"byteLength":5824,
			"byteOffset":2359688,
			"target":34962
		},
		{
			"buffer":0,
			"byteLength":19584,
			"byteOffset":2365512,
			"target":34962
		},
		{
			"buffer":0,
			"byteLength":19584,
			"byteOffset":2385096,
			"target":34962
		},
		{
			"buffer":0,
			"byteLength":13056,
			"byteOffset":2404680,
			"target":34962
		}
	],
	"samplers":[
		{
			"magFilter":9729,
			"minFilter":9987
		}
	],
	"buffers":[
		{
			"byteLength":2417736,
			"uri":"scene.bin"
		}
	]
}
